<svg width="139" height="59" viewBox="0 0 139 59" fill="none" xmlns="http://www.w3.org/2000/svg">
<path d="M8.52999 59L0 13.2241L21.9066 1.83103L32.3752 20.3448H44.7824L52.9247 0L73.4742 7.73103V27.8724L101.003 43.7414L139 31.7379L121.94 59H8.52999Z" fill="#A6A6A6"/>
<path d="M139.001 31.7375L131.634 43.5375L122.91 36.8238L139.001 31.7375Z" fill="#3F3A4B"/>
<path d="M21.9066 1.83179L16.4784 20.549L0 13.2249L21.9066 1.83179Z" fill="#3F3A4B"/>
<path d="M60.4842 20.3448H44.7812L52.9235 0L60.4842 20.3448Z" fill="#3F3A4B"/>
<path d="M73.4737 27.8716L54.2812 17.9026L73.4737 7.73022V27.8716Z" fill="#3F3A4B"/>
<ellipse cx="37.8041" cy="41.097" rx="11.0502" ry="14.6483" fill="#3F3A4B"/>
<ellipse cx="39.937" cy="41.2997" rx="5.8159" ry="7.93448" fill="white"/>
<ellipse cx="40.9061" cy="43.3356" rx="3.6834" ry="4.67931" fill="black"/>
<ellipse cx="58.1596" cy="41.2997" rx="5.8159" ry="7.93448" fill="white"/>
<ellipse cx="59.1287" cy="43.3356" rx="3.6834" ry="4.67931" fill="black"/>
</svg>
